# Blender v2.90.0 OBJ File: ''
# www.blender.org
mtllib stand.mtl
o stand
v -0.709031 3.354384 -0.666654
v -0.709031 3.438440 -0.316079
v -0.709031 3.813488 -0.283548
v -0.798263 4.053262 -0.606035
v 0.798263 4.053262 -0.606035
v 0.798263 4.053262 -0.817486
v 0.798263 3.030555 -0.694742
v 0.798263 0.400068 -0.902877
v 0.798263 0.400068 -1.114328
v -0.798263 3.030555 -0.906192
v -0.798263 3.030555 -0.694742
v -0.709031 3.729432 -0.634123
v 0.709031 3.729432 -0.634123
v -1.554795 0.323000 -0.342877
v -1.554795 0.323000 -1.674328
v -1.554795 0.000000 -1.674328
v -0.798263 0.400068 -0.902877
v 1.554795 0.323000 -0.342877
v -0.798263 0.400068 -1.114328
v 1.554795 0.323000 -1.674328
v 0.709031 3.354384 -0.666654
v 0.798263 3.030555 -0.906192
v 1.554795 0.000000 -0.342877
v -0.798263 4.053262 -0.817486
v 0.709031 3.813488 -0.283548
v 1.554795 0.000000 -1.674328
v 0.709031 3.438440 -0.316079
v -1.554795 0.000000 -0.342877
vt 0.610464 0.308273
vt 0.671134 0.322819
vt 0.676764 0.387725
vt 0.410831 0.813918
vt 0.687123 0.813918
vt 0.687123 0.850512
vt 0.926182 0.821807
vt 0.962202 0.366580
vt 0.998795 0.366580
vt 0.856477 0.821807
vt 0.893070 0.821807
vt 0.908421 0.998795
vt 0.016647 0.942754
vt 0.262055 0.942754
vt 0.277497 0.998795
vt 0.743153 0.470059
vt 0.512735 0.470059
vt 0.512735 0.414162
vt 0.410831 0.865289
vt 0.279907 0.768377
vt 0.818047 0.768377
vt 0.410831 0.901883
vt 0.279907 0.998795
vt 0.687123 0.901883
vt 0.818047 0.998795
vt 0.277497 0.366580
vt 0.277497 0.821807
vt 0.001205 0.821807
vt 0.262055 0.877849
vt 0.016647 0.877849
vt 0.410831 0.865863
vt 0.687123 0.865863
vt 0.539345 0.308273
vt 0.539345 0.364171
vt 0.001205 0.364171
vt 0.410831 0.850512
vt 0.279907 0.533139
vt 0.279907 0.472469
vt 0.525314 0.472469
vt 0.001205 0.249965
vt 0.539345 0.249965
vt 0.539345 0.305863
vt 0.279907 0.414162
vt 0.510325 0.414162
vt 0.510325 0.470059
vt 0.547385 0.322819
vt 0.608055 0.308273
vt 0.602425 0.373178
vt 0.016647 0.892395
vt 0.001205 0.998795
vt 0.857050 0.366580
vt 0.279907 0.765967
vt 0.279907 0.535549
vt 0.818047 0.535549
vt 0.962776 0.821807
vt 0.947424 0.998795
vt 0.616094 0.373178
vt 0.871828 0.998795
vt 0.743153 0.414162
vt 0.687123 0.865289
vt 0.001205 0.366580
vt 0.001205 0.308273
vt 0.525314 0.533139
vt 0.001205 0.305863
vt 0.279907 0.470059
vt 0.541755 0.387725
vt 0.262055 0.892395
vt 0.820457 0.366580
vt 0.818047 0.765967
vt 0.910831 0.998795
vn -1.0000 0.0000 0.0000
vn 0.0000 1.0000 0.0000
vn 1.0000 0.0000 0.0000
vn -0.0000 -0.0864 0.9963
vn -0.0508 0.9964 0.0684
vn -0.0509 0.9964 0.0684
vn 0.0509 0.9964 0.0684
vn -0.0339 0.9953 -0.0912
vn -0.0678 0.9967 -0.0456
vn 0.0678 0.9967 -0.0456
vn 0.0339 0.9953 -0.0912
vn 0.0000 -0.0789 0.9969
vn -0.0000 -0.0839 0.9965
vn 0.0000 -0.0834 0.9965
vn -0.0000 0.0814 -0.9967
vn 0.0000 0.0838 -0.9965
vn 0.0000 0.0789 -0.9969
vn 0.0000 -0.0000 1.0000
vn 0.0000 0.0864 -0.9963
vn 0.0000 0.9724 -0.2332
vn 0.0000 0.0000 -1.0000
vn 0.0000 -0.9724 0.2332
vn 0.0000 -1.0000 -0.0000
vn 0.0508 0.9964 0.0684
usemtl stand
s 1
f 1/1/1 2/2/1 3/3/1
f 4/4/2 5/5/2 6/6/2
f 7/7/3 8/8/3 9/9/3
f 10/10/1 11/11/1 4/12/1
f 12/13/4 13/14/4 5/15/4
f 14/16/1 15/17/1 16/18/1
f 17/19/5 14/20/6 18/21/7
f 17/19/5 19/22/8 15/23/9
f 19/22/8 9/24/10 20/25/11
f 8/26/12 7/27/13 11/28/14
f 21/29/4 1/30/4 11/28/14
f 10/31/15 22/32/16 9/24/17
f 18/21/7 20/25/11 9/24/10
f 23/33/18 18/34/18 14/35/18
f 24/36/19 6/6/19 22/32/16
f 12/37/20 3/38/20 25/39/20
f 26/40/21 16/41/21 15/42/21
f 23/43/3 26/44/3 20/45/3
f 27/46/3 21/47/3 13/48/3
f 21/29/4 7/27/13 5/15/4
f 2/49/22 1/30/22 21/29/22
f 1/30/4 12/13/4 4/50/4
f 17/51/1 11/11/1 10/10/1
f 28/52/23 16/53/23 26/54/23
f 7/7/3 22/55/3 6/56/3
f 12/57/1 1/1/1 3/3/1
f 24/36/2 4/4/2 6/6/2
f 22/55/3 7/7/3 9/9/3
f 24/58/1 10/10/1 4/12/1
f 4/50/4 12/13/4 5/15/4
f 28/59/1 14/16/1 16/18/1
f 8/60/24 17/19/5 18/21/7
f 14/20/6 17/19/5 15/23/9
f 15/23/9 19/22/8 20/25/11
f 17/61/12 8/26/12 11/28/14
f 7/27/13 21/29/4 11/28/14
f 19/22/17 10/31/15 9/24/17
f 8/60/24 18/21/7 9/24/10
f 28/62/18 23/33/18 14/35/18
f 10/31/15 24/36/19 22/32/16
f 13/63/20 12/37/20 25/39/20
f 20/64/21 26/40/21 15/42/21
f 18/65/3 23/43/3 20/45/3
f 25/66/3 27/46/3 13/48/3
f 13/14/4 21/29/4 5/15/4
f 27/67/22 2/49/22 21/29/22
f 11/28/14 1/30/4 4/50/4
f 19/68/1 17/51/1 10/10/1
f 23/69/23 28/52/23 26/54/23
f 5/70/3 7/7/3 6/56/3
